<?xml version="1.0" standalone="no"?>
<!DOCTYPE svg PUBLIC "-//W3C//DTD SVG 1.1//EN" "http://www.w3.org/Graphics/SVG/1.1/DTD/svg11.dtd" >
<svg xmlns="http://www.w3.org/2000/svg">
<metadata>Generated by IcoMoon</metadata>
<defs>
<font id="icomoon" horiz-adv-x="1024">
<font-face units-per-em="1024" ascent="960" descent="-64" />
<missing-glyph horiz-adv-x="1024" />
<glyph unicode="&#x20;" d="" horiz-adv-x="512" />
<glyph unicode="&#xe600;" d="M284.664 750.228l110.296 109.772 410.040-412-410.040-412-110.296 109.774 300.79 302.226z" />
<glyph unicode="&#xe601;" d="M876.786 210.81l-237.272 237.236 237.242 237.258-127.566 127.482-237.2-237.236-237.24 237.206-127.536-127.46 237.278-237.262-237.248-237.284 127.46-127.536 237.3 237.318 237.3-237.288z" />
<glyph unicode="&#xe602;" d="M796.436 774.030l-396.978-396.98-171.95 171.998-127.508-127.532 299.466-299.546 524.534 524.578z" />
<glyph unicode="&#xe603;" d="M924 633h-824v130h824v-130zM924 513h-824v-130h824v130zM924 263h-824v-130h824v130z" />
<glyph unicode="&#xe604;" d="M679.304 405.042c0-58.78-47.818-106.598-106.598-106.598-58.778 0-106.596 47.818-106.596 106.598 0 58.778 47.818 106.596 106.596 106.596 58.78 0 106.598-47.818 106.598-106.596zM924 663.75v-534h-824v534h226.438c22.506 0 43.12 12.594 53.388 32.62l35.838 69.88h307.33l39.638-71.57c10.572-19.086 30.67-30.93 52.488-30.93h108.88zM309.662 547.25c0 22.644-18.356 41-41 41s-41-18.356-41-41 18.356-41 41-41 41 18.356 41 41zM771 405.042c0 109.338-88.954 193.708-198.292 193.708s-198.292-84.37-198.292-193.708c0-109.34 88.954-198.292 198.292-198.292s198.292 88.954 198.292 198.292zM284.662 750.75h-131v-54h131v54z" />
<glyph unicode="&#xe605;" d="M315.886 106.116l69.994-70.116h-285.88v285.876l70.116-69.994 114.506 114.508 145.768-145.772-114.504-114.502zM638.124 860l69.994-70.116-112.16-112.158 145.77-145.77 112.16 112.16 70.112-69.992v285.876h-285.876zM170.116 644.114l-70.116-69.994v285.88h285.876l-69.996-70.116 114.508-114.506-145.772-145.768-114.5 114.504zM924 321.876l-70.116-69.994-112.158 112.16-145.77-145.77 112.16-112.16-69.992-70.112h285.876v285.876z" />
<glyph unicode="&#xe606;" d="M837.998 447.998l-595.996-411.998v824z" />
<glyph unicode="&#xe607;" d="M435.358 36h-240v824h240v-824zM828.642 860h-240v-824h240v824z" />
<glyph unicode="&#xe608;" d="M924 766.86v-637.72l-461.262 318.858 461.262 318.862zM100 447.998l461.262-318.858v141.87c-132.402 91.528-256.032 176.988-256.032 176.988s123.628 85.462 256.032 176.99v141.872l-461.262-318.862z" />
<glyph unicode="&#xe609;" d="M561.262 447.998l-461.262-318.858v637.72l461.262-318.862zM462.738 766.86v-141.872c132.402-91.528 256.032-176.99 256.032-176.99s-123.628-85.46-256.032-176.988v-141.87l461.262 318.858-461.262 318.862z" />
<glyph unicode="&#xe60a;" d="M772.238 610.034l-50.67-50.668c44.55-26.52 84.278-60.652 117.446-99.674-37.172-50.562-150.676-181.964-326.024-181.964-22.314 0-44.286 2.566-65.786 7.274l-56.674-56.674c39.636-13.278 80.708-20.61 122.458-20.61 169.040 0 321.866 106.188 411.012 254.75-42.704 62.024-94.906 111.162-151.762 147.566zM516.704 308.812c76.784 0 139.024 62.242 139.024 139.022 0 13.856-2.070 27.216-5.848 39.84l-173.014-173.014c12.622-3.778 25.982-5.848 39.838-5.848zM232.67 168.672l89.178 89.18c0 0 0.002 0 0.002-0.002l52 52c0 0 0 0-0.002 0l42.174 42.176c0 0 0-0.002 0.002-0.002l375.308 375.31-49.102 49.102-105.472-105.472c-41.3 11.54-83.052 17.32-123.77 17.32-146.186 0-305.216-75.582-412.988-226.668 43.702-64.060 98.812-121.988 161.124-166.284l-77.558-77.558 49.104-49.102zM187.204 460.454c40.548 46.174 156.154 157.822 325.786 157.822 22.288 0 44.148-1.954 65.498-5.584l-29.62-29.618c-10.33 2.448-21.088 3.782-32.166 3.782-25.792 0-49.944-7.024-70.644-19.264l32.4-54.926-24.372-24.372-54.166 35c-14.072-21.73-22.24-47.638-22.24-75.458 0-11.076 1.334-21.836 3.782-32.164l-70.324-70.326c-47.078 31.782-89.134 72.122-123.934 115.108z" />
<glyph unicode="&#xe60b;" d="M512.988 207.716c-163.192 0-316.114 111.896-412.988 253.898 107.772 151.086 266.802 226.668 412.988 226.668 146.786 0 307.032-74.792 411.012-225.814-89.146-148.564-241.972-254.752-411.012-254.752zM187.204 460.454c79.564-98.276 197.056-182.728 325.786-182.728 175.348 0 288.852 131.402 326.024 181.964-79.142 93.116-195.534 158.586-326.024 158.586-169.632 0-285.238-111.648-325.786-157.822zM516.704 447.834l-116.782 75.458c-14.072-21.73-22.24-47.638-22.24-75.458 0-76.78 62.242-139.022 139.022-139.022 76.784 0 139.024 62.242 139.024 139.022s-62.24 139.022-139.024 139.022c-25.792 0-49.944-7.024-70.644-19.264l70.644-119.758z" />
<glyph unicode="&#xe60c;" d="M924 488h-82.4c-18.156 151.494-138.124 271.444-289.6 289.6v82.4h-80v-82.4c-151.494-18.156-271.444-138.124-289.598-289.6h-82.402v-80h82.4c18.156-151.494 138.124-271.444 289.6-289.6v-82.4h80v82.4c151.492 18.156 271.444 138.124 289.598 289.6h82.402v80zM552 199.148v66.956h-80v-66.956c-107.154 16.954-191.886 101.61-208.852 208.852h66.956v80h-66.956c16.952 107.154 101.61 191.888 208.852 208.852v-66.956h80v66.956c107.156-16.954 191.886-101.61 208.852-208.852h-66.956v-80h66.956c-16.952-107.15-101.61-191.886-208.852-208.852zM562 448c0-27.614-22.386-50-50-50s-50 22.386-50 50 22.386 50 50 50 50-22.386 50-50z" />
<glyph unicode="&#xe60d;" d="M367.488 757.698c-105.594-65.48-166.066-175.912-171.94-291.266h-95.548l153.206-153.97 153.972 153.97h-94.658c5.602 76.386 46.43 148.592 116.498 192.042 116.242 72.084 268.912 36.282 340.994-79.96 72.082-116.244 36.284-268.912-79.958-340.992-106.378-65.966-243.25-41.568-320.962 52.138l-82.076-83.64c115.518-130.412 311.498-162.642 464.568-67.722 171.044 106.064 223.72 330.704 117.654 501.748-106.066 171.040-330.704 223.716-501.75 117.652z" />
<glyph unicode="&#xe60e;" d="M734 369h-279v307h90v-217h189v-90zM512 770c-177.984 0-322-144.044-322-322 0-177.984 144.046-322 322-322 177.984 0 322 144.046 322 322 0 177.986-144.046 322-322 322zM512 860c227.542 0 412-184.458 412-412s-184.458-412-412-412-412 184.458-412 412 184.458 412 412 412z" />
<glyph unicode="&#xe60f;" d="M512 219.376h-168.99v60h168.99v-60zM678.99 330.208h-335.98v60h335.98v-60zM678.99 440.876h-335.98v60h335.98v-60zM595.636 780v-171.5h171.728v-492.5h-510.73v664h339.002zM645.636 860h-469.002v-824h670.73v622.5l-201.728 201.5z" />
<glyph unicode="&#xe610;" d="M512 780c183.48 0 332-148.488 332-332 0-183.482-148.49-332-332-332-183.482 0-332 148.49-332 332 0 183.482 148.488 332 332 332zM512 860c-227.542 0-412-184.458-412-412s184.458-412 412-412 412 184.458 412 412-184.458 412-412 412v0zM516.050 200.978c-29.092 0-52.686 23.594-52.686 52.698 0 29.086 23.594 52.672 52.686 52.672 29.098 0 52.684-23.586 52.684-52.672 0-29.104-23.586-52.698-52.684-52.698zM557.47 356.708v-9.478c0 0-78.988 0-86.846 0v9.478c0 26.816 3.912 61.22 35.046 91.13 31.138 29.916 70.048 54.624 70.048 91.992 0 41.31-28.67 63.162-64.818 63.162-60.232 0-64.17-62.468-65.654-76.224h-84.466c2.25 65.14 29.782 156.254 150.63 156.254 104.726 0 151.81-70.14 151.81-135.914 0-104.694-105.75-122.88-105.75-190.4z" />
<glyph unicode="&#xe611;" d="M511.996 779.998c183.48 0 332.004-148.482 332.004-331.996 0-183.482-148.49-332-332.004-332-183.48 0-331.996 148.486-331.996 332 0 183.48 148.486 331.996 331.996 331.996zM511.996 859.998c-227.538 0-411.996-184.456-411.996-411.996 0-227.542 184.458-412 411.996-412 227.542 0 412.004 184.458 412.004 412 0 227.54-184.46 411.996-412.004 411.996v0zM571.644 224.866h-115.292v273.934h115.292v-273.934zM514 555.464c-35.044 0-63.458 28.412-63.458 63.46 0 35.044 28.412 63.458 63.458 63.458 35.048 0 63.456-28.412 63.456-63.458 0-35.048-28.408-63.46-63.456-63.46z" />
<glyph unicode="&#xe612;" d="M923.936 241.284h-159.874c-0.008 173.996-86.98 91.296-86.98 243.77 0 55.040 36.034 84.91 82.3 84.91 68.362 0 115.938-65.27 51.202-187.32-21.268-40.098 22.646-49.624 69.824-60.508 47.156-10.876 43.528-35.74 43.528-80.852zM143.592 322.134c47.178 10.882 91.092 20.41 69.824 60.508-64.736 122.050-17.16 187.32 51.202 187.32 46.268 0 82.3-29.872 82.3-84.91 0-152.472-86.972-69.774-86.98-243.77h-159.874c0 45.114-3.628 69.978 43.528 80.852zM664.23 342.982c-59.34 13.692-114.578 25.676-87.826 76.11 81.43 153.524 21.584 235.624-64.404 235.624-87.684 0-146.054-85.25-64.402-235.624 27.552-50.742-29.766-62.714-87.83-76.11-59.316-13.68-54.754-44.954-54.754-101.7h413.97c0 56.748 4.564 88.020-54.754 101.7z" />
<glyph unicode="&#xe613;" d="M814.896 239.052c-118.072 27.234-227.978 51.082-174.75 151.434 162.020 305.458 42.946 468.812-128.144 468.812-174.462 0-290.606-169.624-128.144-468.812 54.824-100.964-59.216-124.786-174.75-151.434-118.024-27.218-108.946-89.446-108.946-202.352h823.676c0 112.908 9.078 175.134-108.942 202.352z" />
<glyph unicode="&#xe614;" d="M285.686 554.82c0 33.72 27.342 61.060 61.062 61.060s61.060-27.34 61.060-61.060c0-33.724-27.34-61.060-61.060-61.060s-61.062 27.336-61.062 61.060zM595.392 552.866l-101.216-143.81-55.008 56.698-155.208-176.348h485.156l-173.724 263.46zM844 679v-462h-664v462h664zM924 759h-824v-622h824v622z" />
<glyph unicode="&#xe615;" d="M750.666 564.418l-68.95 226.218-581.718-177.302 133.84-439.112 82.028 25.002v-93.862h608.136v459.056h-173.336zM273.096 247.916l-99.406 326.152 468.762 142.88 46.492-152.532h-373.078v-303.464l-42.77-13.036zM864.958 164.406h-490.054v340.97h490.054v-340.97zM452.908 413.726c0 24.886 20.176 45.066 45.066 45.066 24.882 0 45.058-20.18 45.058-45.066 0-24.888-20.176-45.062-45.058-45.062-24.89 0-45.066 20.174-45.066 45.062zM681.478 412.286l-74.7-106.136-40.598 41.844-114.55-130.152h358.062l-128.214 194.444z" />
<glyph unicode="&#xe616;" d="M395.214 146.69l-84.214-84.216h402l-84.214 84.214h-233.572zM924 196.474h-824v637.052h824v-637.052zM839.782 358v391.31l-655.564-0.004v-391.306h655.564z" />
<glyph unicode="&#xe617;" d="M901.406 711.55c-80.94 165.612-326.83 152.808-389.406 8.516-62.576 144.292-308.466 157.096-389.406-8.514-95.414-195.226 126.024-381.192 389.406-647.58 263.382 266.388 484.82 452.354 389.406 647.578z" />
<glyph unicode="&#xe618;" d="M512 839.836l125.958-259.84 286.044-39.496-208.202-200.086 50.83-284.25-254.63 136.18-254.63-136.18 50.83 284.25-208.202 200.086 286.044 39.496z" />
<glyph unicode="&#xe619;" d="M924 392.516v110.97l-59.962 21.324c-22.862 8.13-41.256 25.588-50.548 48.002-0.004 0.008-0.008 0.018-0.012 0.026-9.318 22.47-8.666 47.836 1.778 69.806l27.306 57.448-78.468 78.468-57.44-27.304c-21.958-10.438-47.36-11.092-69.816-1.778-0.010 0.004-0.020 0.006-0.028 0.010-22.43 9.3-39.866 27.668-48 50.546l-21.328 59.966h-110.968l-21.324-59.962c-8.13-22.862-25.588-41.254-48.002-50.548-0.010-0.004-0.018-0.008-0.028-0.010-22.47-9.32-47.838-8.666-69.81 1.778l-57.446 27.306-78.468-78.468 27.306-57.442c10.438-21.958 11.090-47.362 1.778-69.82-0.004-0.008-0.008-0.018-0.012-0.026-9.298-22.428-27.668-39.862-50.542-47.996l-59.966-21.326v-110.97l59.96-21.322c22.862-8.13 41.254-25.588 50.548-48 0.004-0.010 0.006-0.020 0.010-0.028 9.32-22.472 8.668-47.842-1.776-69.812l-27.308-57.446 78.468-78.468 57.442 27.304c21.958 10.438 47.362 11.092 69.818 1.778 0.010-0.004 0.020-0.008 0.028-0.012 22.428-9.298 39.86-27.666 47.996-50.542l21.328-59.968h110.968l21.19 59.58c8.206 23.076 25.816 41.648 48.432 51.050 0.010 0.004 0.018 0.008 0.028 0.012 22.254 9.256 47.388 8.622 69.156-1.726l57.804-27.476 78.468 78.468-27.32 57.474c-10.428 21.938-11.078 47.318-1.772 69.754 0.004 0.010 0.008 0.018 0.012 0.028 9.308 22.45 27.696 39.898 50.594 48.042l59.926 21.31zM512 296.908c-83.448 0-151.096 67.646-151.096 151.092s67.648 151.094 151.096 151.094c83.446 0 151.092-67.648 151.092-151.094s-67.646-151.092-151.092-151.092z" />
<glyph unicode="&#xe61a;" d="M920.95 143.114l-218.15 218.146c31.9 50.274 50.4 109.846 50.4 173.666 0.002 179.246-145.826 325.074-325.076 325.074-179.246 0-325.074-145.828-325.074-325.074s145.828-325.074 325.074-325.074c60.652 0 117.466 16.712 166.11 45.752l219.602-219.604 107.114 107.114zM224.234 534.926c0 112.426 91.464 203.892 203.89 203.892s203.894-91.466 203.894-203.892-91.466-203.89-203.894-203.89c-112.426 0-203.89 91.464-203.89 203.89z" />
<glyph unicode="&#xe61b;" d="M920.95 143.114l-218.15 218.146c31.9 50.274 50.4 109.846 50.4 173.666 0.002 179.246-145.826 325.074-325.076 325.074-179.246 0-325.074-145.828-325.074-325.074s145.828-325.074 325.074-325.074c60.652 0 117.466 16.712 166.11 45.752l219.602-219.604 107.114 107.114zM192.63 534.924c0 129.854 105.638 235.496 235.492 235.496 129.852 0 235.496-105.642 235.496-235.496 0-129.852-105.644-235.494-235.496-235.494s-235.492 105.642-235.492 235.494zM564.552 496.236h-95.458v-95.458h-73.718v95.458h-95.46v73.72h95.46v95.458h73.718v-95.458h95.458v-73.72z" />
<glyph unicode="&#xe61c;" d="M920.95 143.114l-218.15 218.146c31.9 50.274 50.4 109.846 50.4 173.666 0.002 179.246-145.826 325.074-325.076 325.074-179.246 0-325.074-145.828-325.074-325.074s145.828-325.074 325.074-325.074c60.65 0 117.464 16.712 166.11 45.752l219.602-219.604 107.114 107.114zM192.63 534.924c0 129.854 105.638 235.496 235.492 235.496 129.852 0 235.496-105.642 235.496-235.496 0-129.852-105.644-235.494-235.496-235.494s-235.492 105.642-235.492 235.494zM564.552 496.236h-264.638v73.72h264.638v-73.72z" />
</font>
</defs>
</svg>
